# Blender v2.68 (sub 0) OBJ File: 'room_01.blend'
# www.blender.org
o Cube.002_Cube.004
v 2.697609 -1.661908 0.136789
v 2.733689 -1.678652 0.136789
v 2.733689 -1.661908 0.170065
v 2.697609 -1.661908 -0.296658
v 2.733689 -1.661908 -0.329935
v 2.733689 -1.678652 -0.296658
v 2.953766 -1.661908 -0.329935
v 2.987043 -1.661908 -0.296658
v 2.953766 -1.678652 -0.296658
v 2.987043 -1.661908 0.136789
v 2.953766 -1.661908 0.170065
v 2.953766 -1.678652 0.136789
v 2.733689 1.685828 0.170065
v 2.733689 1.702572 0.136789
v 2.697609 1.685828 0.136789
v 2.697609 1.685828 -0.296658
v 2.733689 1.702572 -0.296658
v 2.733689 1.685828 -0.329935
v 2.953766 1.685828 -0.329935
v 2.953766 1.702572 -0.296658
v 2.987043 1.685828 -0.296658
v 2.987043 1.685828 0.136789
v 2.953766 1.702572 0.136789
v 2.953766 1.685828 0.170065
v 2.697609 -1.661908 -2.517112
v 2.733689 -1.678652 -2.517112
v 2.733689 -1.661908 -2.483836
v 2.697609 -1.661908 -2.950559
v 2.733689 -1.661908 -2.983836
v 2.733689 -1.678652 -2.950559
v 2.953766 -1.661908 -2.983836
v 2.987043 -1.661908 -2.950559
v 2.953766 -1.678652 -2.950559
v 2.987043 -1.661908 -2.517112
v 2.953766 -1.661908 -2.483836
v 2.953766 -1.678652 -2.517112
v 2.733689 1.685828 -2.483836
v 2.733689 1.702572 -2.517112
v 2.697609 1.685828 -2.517112
v 2.697609 1.685828 -2.950559
v 2.733689 1.702572 -2.950559
v 2.733689 1.685828 -2.983836
v 2.953766 1.685828 -2.983836
v 2.953766 1.702572 -2.950559
v 2.987043 1.685828 -2.950559
v 2.987043 1.685828 -2.517112
v 2.953766 1.702572 -2.517112
v 2.953766 1.685828 -2.483836
v -2.987234 -1.661908 0.136789
v -2.953957 -1.678652 0.136789
v -2.953957 -1.661908 0.170065
v -2.987234 -1.661908 -0.296658
v -2.953957 -1.661908 -0.329935
v -2.953957 -1.678652 -0.296658
v -2.733880 -1.661908 -0.329935
v -2.697800 -1.661908 -0.296658
v -2.733880 -1.678652 -0.296658
v -2.697800 -1.661908 0.136789
v -2.733880 -1.661908 0.170065
v -2.733880 -1.678652 0.136789
v -2.953957 1.685828 0.170065
v -2.953957 1.702572 0.136789
v -2.987234 1.685828 0.136789
v -2.987234 1.685828 -0.296658
v -2.953957 1.702572 -0.296658
v -2.953957 1.685828 -0.329935
v -2.733880 1.685828 -0.329935
v -2.733880 1.702572 -0.296658
v -2.697800 1.685828 -0.296658
v -2.697800 1.685828 0.136789
v -2.733880 1.702572 0.136789
v -2.733880 1.685828 0.170065
v -2.987234 -1.661908 -2.517112
v -2.953957 -1.678652 -2.517112
v -2.953957 -1.661908 -2.483836
v -2.987234 -1.661908 -2.950559
v -2.953957 -1.661908 -2.983836
v -2.953957 -1.678652 -2.950559
v -2.733880 -1.661908 -2.983836
v -2.697800 -1.661908 -2.950559
v -2.733880 -1.678652 -2.950559
v -2.697800 -1.661908 -2.517112
v -2.733880 -1.661908 -2.483836
v -2.733880 -1.678652 -2.517112
v -2.953957 1.685828 -2.483836
v -2.953957 1.702572 -2.517112
v -2.987234 1.685828 -2.517112
v -2.987234 1.685828 -2.950559
v -2.953957 1.702572 -2.950559
v -2.953957 1.685828 -2.983836
v -2.733880 1.685828 -2.983836
v -2.733880 1.702572 -2.950559
v -2.697800 1.685828 -2.950559
v -2.697800 1.685828 -2.517112
v -2.733880 1.702572 -2.517112
v -2.733880 1.685828 -2.483836
v 2.697609 -1.661908 2.756228
v 2.733689 -1.678652 2.756228
v 2.733689 -1.661908 2.789505
v 2.697609 -1.661908 2.322782
v 2.733689 -1.661908 2.289505
v 2.733689 -1.678652 2.322782
v 2.953766 -1.661908 2.289505
v 2.987043 -1.661908 2.322782
v 2.953766 -1.678652 2.322782
v 2.987043 -1.661908 2.756228
v 2.953766 -1.661908 2.789505
v 2.953766 -1.678652 2.756228
v 2.733689 1.685828 2.789505
v 2.733689 1.702572 2.756228
v 2.697609 1.685828 2.756228
v 2.697609 1.685828 2.322782
v 2.733689 1.702572 2.322782
v 2.733689 1.685828 2.289505
v 2.953766 1.685828 2.289505
v 2.953766 1.702572 2.322782
v 2.987043 1.685828 2.322782
v 2.987043 1.685828 2.756228
v 2.953766 1.702572 2.756228
v 2.953766 1.685828 2.789505
v -2.987234 -1.661908 2.756228
v -2.953957 -1.678652 2.756228
v -2.953957 -1.661908 2.789505
v -2.987234 -1.661908 2.322782
v -2.953957 -1.661908 2.289505
v -2.953957 -1.678652 2.322782
v -2.733880 -1.661908 2.289505
v -2.697800 -1.661908 2.322782
v -2.733880 -1.678652 2.322782
v -2.697800 -1.661908 2.756228
v -2.733880 -1.661908 2.789505
v -2.733880 -1.678652 2.756228
v -2.953957 1.685828 2.789505
v -2.953957 1.702572 2.756228
v -2.987234 1.685828 2.756228
v -2.987234 1.685828 2.322782
v -2.953957 1.702572 2.322782
v -2.953957 1.685828 2.289505
v -2.733880 1.685828 2.289505
v -2.733880 1.702572 2.322782
v -2.697800 1.685828 2.322782
v -2.697800 1.685828 2.756228
v -2.733880 1.702572 2.756228
v -2.733880 1.685828 2.789505
vt 0.636777 0.035759
vt 0.637575 0.501397
vt 0.631605 0.501397
vt 0.630850 0.035759
vt 0.122407 0.982433
vt 0.121609 0.540567
vt 0.127580 0.540567
vt 0.128334 0.982433
vt 0.689152 0.501397
vt 0.688289 0.035759
vt 0.070895 0.982433
vt 0.070032 0.540567
vt 0.694263 0.035759
vt 0.695128 0.501397
vt 0.064921 0.982433
vt 0.064056 0.540567
vt 0.579381 0.501397
vt 0.580181 0.035759
vt 0.179004 0.982433
vt 0.179804 0.540567
vt 0.633853 0.021100
vt 0.634658 0.516056
vt 0.124526 0.530220
vt 0.125331 0.996155
vt 0.690983 0.021100
vt 0.691865 0.516056
vt 0.746959 0.501397
vt 0.747222 0.035759
vt 0.067320 0.530220
vt 0.068200 0.996155
vt 0.011962 0.982433
vt 0.012225 0.540567
vt 0.573212 0.501397
vt 0.574383 0.035759
vt 0.185973 0.540567
vt 0.184802 0.982433
vt 0.578018 0.021100
vt 0.577061 0.516056
vt 0.516189 0.501397
vt 0.519495 0.035759
vt 0.182124 0.530220
vt 0.181167 0.996155
vt 0.243380 0.982433
vt 0.242996 0.540567
vt 0.753592 0.035759
vt 0.753593 0.501397
vt 0.005591 0.982433
vt 0.005591 0.540567
vt 0.748129 0.021100
vt 0.747945 0.516056
vt 0.011239 0.530220
vt 0.011054 0.996155
vt 0.521182 0.021100
vt 0.518197 0.516056
vt 0.240989 0.530220
vt 0.241693 0.996155
vt 0.636777 0.538226
vt 0.637575 0.980091
vt 0.631605 0.980091
vt 0.630850 0.538226
vt 0.374939 0.980091
vt 0.374141 0.538226
vt 0.380111 0.538226
vt 0.380866 0.980091
vt 0.689152 0.980091
vt 0.688289 0.538226
vt 0.323427 0.980091
vt 0.322564 0.538226
vt 0.694264 0.538226
vt 0.695128 0.980091
vt 0.317453 0.980091
vt 0.316588 0.538226
vt 0.633853 0.527879
vt 0.634658 0.993814
vt 0.579381 0.980091
vt 0.580181 0.538226
vt 0.377058 0.527879
vt 0.377863 0.993814
vt 0.690984 0.527879
vt 0.691864 0.993814
vt 0.431535 0.980091
vt 0.432335 0.538226
vt 0.319852 0.527879
vt 0.320733 0.993814
vt 0.746959 0.980091
vt 0.747222 0.538226
vt 0.264494 0.980091
vt 0.264757 0.538226
vt 0.578018 0.527879
vt 0.577061 0.993814
vt 0.434655 0.527879
vt 0.433698 0.993814
vt 0.573212 0.980091
vt 0.574383 0.538226
vt 0.438503 0.538226
vt 0.437333 0.980091
vt 0.748130 0.527879
vt 0.747945 0.993814
vt 0.516189 0.980091
vt 0.517650 0.538226
vt 0.263771 0.527879
vt 0.263586 0.993814
vt 0.495911 0.980091
vt 0.495527 0.538226
vt 0.753593 0.538226
vt 0.753593 0.980091
vt 0.258123 0.980091
vt 0.258123 0.538226
vt 0.519337 0.527879
vt 0.518197 0.993814
vt 0.493519 0.527879
vt 0.494224 0.993814
vt 0.129242 0.028958
vt 0.130041 0.494597
vt 0.124070 0.494597
vt 0.123316 0.028958
vt 0.181618 0.494597
vt 0.180754 0.028958
vt 0.378628 0.497257
vt 0.377831 0.084753
vt 0.383801 0.084753
vt 0.384555 0.497257
vt 0.327117 0.497257
vt 0.326254 0.084753
vt 0.186728 0.028958
vt 0.187594 0.494597
vt 0.321142 0.497257
vt 0.320278 0.084753
vt 0.126318 0.014299
vt 0.127124 0.509256
vt 0.380748 0.071767
vt 0.381552 0.510243
vt 0.183449 0.014299
vt 0.184330 0.509256
vt 0.323541 0.071767
vt 0.324422 0.510243
vt 0.071846 0.494597
vt 0.072647 0.028958
vt 0.435224 0.497257
vt 0.436025 0.084753
vt 0.239425 0.494597
vt 0.239687 0.028958
vt 0.268183 0.497257
vt 0.268447 0.084753
vt 0.070484 0.014299
vt 0.069527 0.509256
vt 0.438345 0.071767
vt 0.437387 0.510243
vt 0.240595 0.014299
vt 0.240411 0.509256
vt 0.065678 0.494597
vt 0.066850 0.028958
vt 0.267461 0.071767
vt 0.267276 0.510243
vt 0.442194 0.084753
vt 0.441022 0.497257
vt 0.008654 0.494597
vt 0.008272 0.028958
vt 0.246058 0.028958
vt 0.246059 0.494597
vt 0.497754 0.497257
vt 0.499217 0.084753
vt 0.261813 0.497257
vt 0.261813 0.084753
vt 0.009960 0.014299
vt 0.010662 0.509256
vt 0.497209 0.071767
vt 0.496068 0.510243
vn -0.307596 -0.469344 0.827693
vn -0.307596 0.469344 0.827693
vn -0.812311 0.475570 0.337535
vn -0.812311 -0.475570 0.337535
vn 0.307596 0.469344 0.827693
vn 0.307596 -0.469344 0.827693
vn 0.812311 -0.475570 0.337535
vn 0.812311 0.475570 0.337535
vn 0.323527 0.466506 0.823176
vn 0.323527 -0.466506 0.823176
vn -0.323527 0.466506 0.823176
vn -0.323527 -0.466506 0.823176
vn 0.823176 -0.466506 0.323527
vn 0.823176 0.466506 0.323527
vn -0.823176 0.466506 0.323527
vn -0.823176 -0.466506 0.323527
vn -0.812311 0.475570 -0.337535
vn -0.812311 -0.475570 -0.337535
vn 0.812311 0.475570 -0.337535
vn 0.812311 -0.475570 -0.337535
vn -0.274483 -0.915159 0.295083
vn -0.274483 0.915159 0.295114
vn 0.274483 -0.915159 0.295083
vn 0.274483 0.915159 0.295114
vn 0.293863 -0.909543 0.293863
vn 0.293863 0.909543 0.293863
vn 0.823176 0.466506 -0.323527
vn 0.823176 -0.466506 -0.323527
vn -0.293863 -0.909543 0.293863
vn -0.293863 0.909543 0.293863
vn -0.823176 0.466506 -0.323527
vn -0.823176 -0.466506 -0.323527
vn -0.307596 0.469344 -0.827693
vn -0.307596 -0.469344 -0.827693
vn 0.307596 -0.469344 -0.827693
vn 0.307596 0.469344 -0.827693
vn -0.274483 -0.915159 -0.295083
vn -0.274483 0.915159 -0.295114
vn 0.323527 0.466506 -0.823176
vn 0.323527 -0.466506 -0.823176
vn 0.274483 -0.915159 -0.295083
vn 0.274483 0.915159 -0.295114
vn -0.323527 0.466506 -0.823176
vn -0.323527 -0.466506 -0.823176
vn 0.293863 -0.909543 -0.293863
vn 0.293863 0.909543 -0.293863
vn -0.293863 -0.909543 -0.293863
vn -0.293863 0.909543 -0.293863
s 1
f 99/1/1 109/2/2 111/3/3 97/4/4
f 144/5/5 131/6/6 130/7/7 142/8/8
f 120/9/9 109/2/2 99/1/1 107/10/10
f 144/5/5 133/11/11 123/12/12 131/6/6
f 120/9/9 107/10/10 106/13/13 118/14/14
f 123/12/12 133/11/11 135/15/15 121/16/16
f 111/3/3 112/17/17 100/18/18 97/4/4
f 141/19/19 142/8/8 130/7/7 128/20/20
f 97/4/4 98/21/21 99/1/1
f 109/2/2 110/22/22 111/3/3
f 130/7/7 131/6/6 132/23/23
f 142/8/8 143/24/24 144/5/5
f 98/21/21 108/25/25 107/10/10 99/1/1
f 119/26/26 110/22/22 109/2/2 120/9/9
f 117/27/27 118/14/14 106/13/13 104/28/28
f 122/29/29 132/23/23 131/6/6 123/12/12
f 143/24/24 134/30/30 133/11/11 144/5/5
f 135/15/15 136/31/31 124/32/32 121/16/16
f 106/13/13 107/10/10 108/25/25
f 114/33/33 101/34/34 100/18/18 112/17/17
f 118/14/14 119/26/26 120/9/9
f 121/16/16 122/29/29 123/12/12
f 141/19/19 128/20/20 127/35/35 139/36/36
f 133/11/11 134/30/30 135/15/15
f 102/37/37 98/21/21 97/4/4 100/18/18
f 110/22/22 113/38/38 112/17/17 111/3/3
f 114/33/33 115/39/39 103/40/40 101/34/34
f 132/23/23 129/41/41 128/20/20 130/7/7
f 140/42/42 143/24/24 142/8/8 141/19/19
f 138/43/43 139/36/36 127/35/35 125/44/44
f 117/27/27 104/28/28 103/45/40 115/46/39
f 138/47/43 125/48/44 124/32/32 136/31/31
f 108/25/25 105/49/45 104/28/28 106/13/13
f 116/50/46 119/26/26 118/14/14 117/27/27
f 126/51/47 122/29/29 121/16/16 124/32/32
f 134/30/30 137/52/48 136/31/31 135/15/15
f 100/18/18 101/34/34 102/37/37
f 112/17/17 113/38/38 114/33/33
f 127/35/35 128/20/20 129/41/41
f 139/36/36 140/42/42 141/19/19
f 105/53/45 102/37/37 101/34/34 103/40/40
f 113/38/38 116/54/46 115/39/39 114/33/33
f 129/41/41 126/55/47 125/44/44 127/35/35
f 137/56/48 140/42/42 139/36/36 138/43/43
f 103/45/40 104/28/28 105/49/45
f 115/46/39 116/50/46 117/27/27
f 124/32/32 125/48/44 126/51/47
f 136/31/31 137/52/48 138/47/43
f 3/57/1 13/58/2 15/59/3 1/60/4
f 72/61/5 59/62/6 58/63/7 70/64/8
f 24/65/9 13/58/2 3/57/1 11/66/10
f 72/61/5 61/67/11 51/68/12 59/62/6
f 24/65/9 11/66/10 10/69/13 22/70/14
f 51/68/12 61/67/11 63/71/15 49/72/16
f 1/60/4 2/73/21 3/57/1
f 13/58/2 14/74/22 15/59/3
f 15/59/3 16/75/17 4/76/18 1/60/4
f 58/63/7 59/62/6 60/77/23
f 70/64/8 71/78/24 72/61/5
f 2/73/21 12/79/25 11/66/10 3/57/1
f 23/80/26 14/74/22 13/58/2 24/65/9
f 69/81/19 70/64/8 58/63/7 56/82/20
f 50/83/29 60/77/23 59/62/6 51/68/12
f 71/78/24 62/84/30 61/67/11 72/61/5
f 10/69/13 11/66/10 12/79/25
f 22/70/14 23/80/26 24/65/9
f 49/72/16 50/83/29 51/68/12
f 21/85/27 22/70/14 10/69/13 8/86/28
f 61/67/11 62/84/30 63/71/15
f 63/71/15 64/87/31 52/88/32 49/72/16
f 6/89/37 2/73/21 1/60/4 4/76/18
f 14/74/22 17/90/38 16/75/17 15/59/3
f 60/77/23 57/91/41 56/82/20 58/63/7
f 68/92/42 71/78/24 70/64/8 69/81/19
f 18/93/33 5/94/34 4/76/18 16/75/17
f 69/81/19 56/82/20 55/95/35 67/96/36
f 12/79/25 9/97/45 8/86/28 10/69/13
f 20/98/46 23/80/26 22/70/14 21/85/27
f 18/93/33 19/99/39 7/100/40 5/94/34
f 54/101/47 50/83/29 49/72/16 52/88/32
f 62/84/30 65/102/48 64/87/31 63/71/15
f 66/103/43 67/96/36 55/95/35 53/104/44
f 21/85/27 8/86/28 7/105/40 19/106/39
f 66/107/43 53/108/44 52/88/32 64/87/31
f 4/76/18 5/94/34 6/89/37
f 16/75/17 17/90/38 18/93/33
f 55/95/35 56/82/20 57/91/41
f 67/96/36 68/92/42 69/81/19
f 9/109/45 6/89/37 5/94/34 7/100/40
f 17/90/38 20/110/46 19/99/39 18/93/33
f 57/91/41 54/111/47 53/104/44 55/95/35
f 65/112/48 68/92/42 67/96/36 66/103/43
f 7/105/40 8/86/28 9/97/45
f 19/106/39 20/98/46 21/85/27
f 52/88/32 53/108/44 54/101/47
f 64/87/31 65/102/48 66/107/43
f 27/113/1 37/114/2 39/115/3 25/116/4
f 48/117/9 37/114/2 27/113/1 35/118/10
f 96/119/5 83/120/6 82/121/7 94/122/8
f 96/119/5 85/123/11 75/124/12 83/120/6
f 48/117/9 35/118/10 34/125/13 46/126/14
f 75/124/12 85/123/11 87/127/15 73/128/16
f 25/116/4 26/129/21 27/113/1
f 37/114/2 38/130/22 39/115/3
f 82/121/7 83/120/6 84/131/23
f 94/122/8 95/132/24 96/119/5
f 26/129/21 36/133/25 35/118/10 27/113/1
f 47/134/26 38/130/22 37/114/2 48/117/9
f 74/135/29 84/131/23 83/120/6 75/124/12
f 95/132/24 86/136/30 85/123/11 96/119/5
f 34/125/13 35/118/10 36/133/25
f 46/126/14 47/134/26 48/117/9
f 39/115/3 40/137/17 28/138/18 25/116/4
f 73/128/16 74/135/29 75/124/12
f 85/123/11 86/136/30 87/127/15
f 93/139/19 94/122/8 82/121/7 80/140/20
f 45/141/27 46/126/14 34/125/13 32/142/28
f 87/127/15 88/143/31 76/144/32 73/128/16
f 30/145/37 26/129/21 25/116/4 28/138/18
f 38/130/22 41/146/38 40/137/17 39/115/3
f 84/131/23 81/147/41 80/140/20 82/121/7
f 92/148/42 95/132/24 94/122/8 93/139/19
f 36/133/25 33/149/45 32/142/28 34/125/13
f 44/150/46 47/134/26 46/126/14 45/141/27
f 42/151/33 29/152/34 28/138/18 40/137/17
f 78/153/47 74/135/29 73/128/16 76/144/32
f 86/136/30 89/154/48 88/143/31 87/127/15
f 93/139/19 80/140/20 79/155/35 91/156/36
f 42/151/33 43/157/39 31/158/40 29/152/34
f 45/141/27 32/142/28 31/159/40 43/160/39
f 90/161/43 91/156/36 79/155/35 77/162/44
f 90/163/43 77/164/44 76/144/32 88/143/31
f 28/138/18 29/152/34 30/145/37
f 40/137/17 41/146/38 42/151/33
f 79/155/35 80/140/20 81/147/41
f 91/156/36 92/148/42 93/139/19
f 33/165/45 30/145/37 29/152/34 31/158/40
f 41/146/38 44/166/46 43/157/39 42/151/33
f 81/147/41 78/167/47 77/162/44 79/155/35
f 89/168/48 92/148/42 91/156/36 90/161/43
f 31/159/40 32/142/28 33/149/45
f 43/160/39 44/150/46 45/141/27
f 76/144/32 77/164/44 78/153/47
f 88/143/31 89/154/48 90/163/43
