# Blender v2.69 (sub 0) OBJ File: 'room_10.blend'
# www.blender.org
o Cube.001
v -3.000000 -2.000000 2.000000
v -3.000000 -2.000000 -2.000000
v 3.000000 -2.000000 -2.000000
v 3.000000 -2.000000 2.000000
v -3.000000 2.000000 2.000000
v -3.000000 2.000000 -2.000000
v 3.000000 2.000000 -2.000000
v 3.000000 2.000000 2.000000
vt 0.313361 0.618321
vt 0.611845 0.618321
vt 0.611845 0.916816
vt 0.313361 0.916816
vt 0.313355 0.611570
vt 0.313355 0.313081
vt 0.611845 0.313081
vt 0.611845 0.611570
vt 0.917081 0.611575
vt 0.618596 0.611575
vt 0.618596 0.313081
vt 0.917081 0.313081
vt 0.306604 0.611570
vt 0.008115 0.611570
vt 0.008115 0.313081
vt 0.306604 0.313081
vt 0.008115 0.007840
vt 0.306604 0.007840
vt 0.306604 0.306329
vt 0.008115 0.306329
vn 0.707107 -0.707107 0.000000
vn 0.707107 0.707107 0.000000
vn 0.577349 0.577349 0.577349
vn 0.577349 -0.577349 0.577349
vn -0.577349 0.577349 0.577349
vn -0.577349 -0.577349 0.577349
vn -0.707107 0.707107 0.000000
vn -0.707107 -0.707107 0.000000
s 1
f 5/1/1 1/2/2 2/3/3 6/4/4
f 6/5/4 2/6/3 3/7/5 7/8/6
f 7/9/6 3/10/5 4/11/7 8/12/8
f 1/13/2 4/14/7 3/15/5 2/16/3
f 8/17/8 5/18/1 6/19/4 7/20/6
