# Blender v2.68 (sub 0) OBJ File: 'room_01.blend'
# www.blender.org
o floorBox_2m_LP.004_Plane.015
v -1.045400 1.678688 2.952451
v -2.954596 1.678688 2.952451
v -1.045400 1.678688 1.046139
v -2.954596 1.678688 1.046139
v -2.999999 1.704358 1.000000
v -2.999999 1.704358 3.000000
v -0.999998 1.999433 2.952451
v -2.999999 1.999433 2.952451
v -2.999999 1.973763 3.000000
v -1.045400 1.678688 0.952451
v -2.954596 1.678688 0.952451
v -1.045400 1.678688 -0.953861
v -2.954596 1.678688 -0.953861
v -1.045400 1.678688 -1.047549
v -2.954596 1.678688 -1.047549
v -1.045400 1.678688 -2.953861
v -2.954596 1.678688 -2.953861
v -0.999999 1.704358 -3.000000
v -2.999999 1.704358 -3.000000
v -2.999999 1.704358 -1.000000
v 0.954600 1.678688 2.952451
v -0.954596 1.678688 2.952451
v 0.954600 1.678688 1.046139
v -0.954596 1.678688 1.046139
v 1.000000 1.704358 1.000000
v -0.999999 1.704358 1.000000
v -0.999999 1.704358 3.000000
v 1.000002 1.999433 2.952451
v -0.999999 1.973763 3.000000
v 0.954600 1.678688 0.952451
v -0.954596 1.678688 0.952451
v 0.954600 1.678688 -0.953861
v -0.954596 1.678688 -0.953861
v 1.000000 1.704358 -1.000000
v 0.954600 1.678688 -1.047549
v -0.954596 1.678688 -1.047549
v 0.954600 1.678688 -2.953861
v -0.954596 1.678688 -2.953861
v -0.999999 1.704358 -1.000000
v 2.954600 1.678688 2.952451
v 1.045403 1.678688 2.952451
v 2.954600 1.678688 1.046139
v 1.045403 1.678688 1.046139
v 3.000000 1.704358 3.000000
v 3.000000 1.704358 1.000000
v 1.000000 1.704358 3.000000
v 3.000000 1.999433 2.952451
v 3.000000 1.973763 3.000000
v 1.000000 1.973763 3.000000
v 2.954600 1.678688 0.952451
v 1.045403 1.678688 0.952451
v 2.954600 1.678688 -0.953861
v 1.045403 1.678688 -0.953861
v 2.954600 1.678688 -1.047549
v 1.045403 1.678688 -1.047549
v 2.954600 1.678688 -2.953861
v 1.045403 1.678688 -2.953861
v 3.000000 1.704358 -1.000000
v 3.000000 1.704358 -3.000000
v 1.000000 1.704358 -3.000000
vt 0.342692 0.045355
vt 0.656338 0.045059
vt 0.664271 0.036616
vt 0.335369 0.036616
vt 0.664271 0.015159
vt 0.335589 0.016135
vt 0.335562 0.007499
vt 0.664271 0.006523
vt 0.671255 0.045045
vt 0.984901 0.044748
vt 0.992834 0.036616
vt 0.014128 0.045667
vt 0.327774 0.045370
vt 0.006806 0.036616
vt 0.992834 0.014183
vt 0.007027 0.017110
vt 0.992834 0.005547
vt 0.007000 0.008474
vt 0.342998 0.348965
vt 0.656645 0.348668
vt 0.664271 0.356020
vt 0.671562 0.348654
vt 0.335547 0.356331
vt 0.328081 0.348979
vt 0.985208 0.348357
vt 0.014435 0.349276
vt 0.992834 0.355709
vt 0.006983 0.356642
vt 0.343013 0.363887
vt 0.656659 0.363590
vt 0.671577 0.363575
vt 0.985223 0.363279
vt 0.014450 0.364197
vt 0.328096 0.363901
vt 0.343320 0.667496
vt 0.656966 0.667199
vt 0.664271 0.674551
vt 0.671883 0.667185
vt 0.335868 0.674862
vt 0.328402 0.667510
vt 0.985529 0.666888
vt 0.014757 0.667807
vt 0.992834 0.674240
vt 0.007305 0.675173
vt 0.343335 0.682417
vt 0.656981 0.682120
vt 0.671898 0.682106
vt 0.985544 0.681810
vt 0.014772 0.682728
vt 0.328418 0.682431
vt 0.343641 0.986027
vt 0.657288 0.985730
vt 0.664271 0.993082
vt 0.672205 0.985716
vt 0.336190 0.993393
vt 0.328724 0.986041
vt 0.985851 0.985419
vt 0.015078 0.986338
vt 0.992834 0.992771
vt 0.007627 0.993704
vn -0.196173 -0.962737 0.186041
vn 0.196204 -0.962737 0.186041
vn 0.000000 -0.600604 0.799524
vn 0.000000 0.512314 0.858791
vn 0.000000 0.879940 0.475051
vn 0.162633 -0.592608 0.788873
vn -0.162633 -0.592608 0.788873
vn -0.195318 -0.961791 -0.191748
vn 0.195318 -0.961791 -0.191748
vn 0.000000 -0.999969 -0.001373
vn 0.267067 -0.963652 -0.001312
vn -0.267067 -0.963652 -0.001312
vn 0.000000 -0.962706 -0.270516
vn 0.260109 -0.929563 -0.261208
vn -0.260109 -0.929563 -0.261208
s 1
f 22/1/1 21/2/2 46/3/3 27/4/3
f 49/5/4 29/6/4 27/4/3 46/3/3
f 7/7/5 29/6/4 49/5/4 28/8/5
f 41/9/1 40/10/2 44/11/6 46/3/3
f 2/12/1 1/13/2 27/4/3 6/14/7
f 48/15/4 49/5/4 46/3/3 44/11/6
f 29/6/4 9/16/4 6/14/7 27/4/3
f 28/8/5 49/5/4 48/15/4 47/17/5
f 8/18/5 9/16/4 29/6/4 7/7/5
f 24/19/8 23/20/9 21/2/2 22/1/1
f 46/3/3 21/2/2 23/20/9 25/21/10
f 43/22/8 41/9/1 46/3/3 25/21/10
f 24/19/8 22/1/1 27/4/3 26/23/10
f 27/4/3 1/13/2 3/24/9 26/23/10
f 43/22/8 42/25/9 40/10/2 41/9/1
f 4/26/8 3/24/9 1/13/2 2/12/1
f 44/11/6 40/10/2 42/25/9 45/27/11
f 4/26/8 2/12/1 6/14/7 5/28/12
f 26/23/10 25/21/10 23/20/9 24/19/8
f 31/29/1 30/30/2 25/21/10 26/23/10
f 25/21/10 45/27/11 42/25/9 43/22/8
f 5/28/12 26/23/10 3/24/9 4/26/8
f 51/31/1 50/32/2 45/27/11 25/21/10
f 11/33/1 10/34/2 26/23/10 5/28/12
f 33/35/8 32/36/9 30/30/2 31/29/1
f 25/21/10 30/30/2 32/36/9 34/37/10
f 53/38/8 51/31/1 25/21/10 34/37/10
f 33/35/8 31/29/1 26/23/10 39/39/10
f 26/23/10 10/34/2 12/40/9 39/39/10
f 53/38/8 52/41/9 50/32/2 51/31/1
f 13/42/8 12/40/9 10/34/2 11/33/1
f 45/27/11 50/32/2 52/41/9 58/43/11
f 13/42/8 11/33/1 5/28/12 20/44/12
f 39/39/10 34/37/10 32/36/9 33/35/8
f 36/45/1 35/46/2 34/37/10 39/39/10
f 34/37/10 58/43/11 52/41/9 53/38/8
f 20/44/12 39/39/10 12/40/9 13/42/8
f 55/47/1 54/48/2 58/43/11 34/37/10
f 15/49/1 14/50/2 39/39/10 20/44/12
f 38/51/8 37/52/9 35/46/2 36/45/1
f 34/37/10 35/46/2 37/52/9 60/53/13
f 57/54/8 55/47/1 34/37/10 60/53/13
f 38/51/8 36/45/1 39/39/10 18/55/13
f 39/39/10 14/50/2 16/56/9 18/55/13
f 57/54/8 56/57/9 54/48/2 55/47/1
f 17/58/8 16/56/9 14/50/2 15/49/1
f 58/43/11 54/48/2 56/57/9 59/59/14
f 17/58/8 15/49/1 20/44/12 19/60/15
f 18/55/13 60/53/13 37/52/9 38/51/8
f 60/53/13 59/59/14 56/57/9 57/54/8
f 19/60/15 18/55/13 16/56/9 17/58/8
